# Blender 4.4.3
# www.blender.org
mtllib cooBox.mtl
o Cube
v 1.000000 1.000000 -1.000000
v 1.000000 -1.000000 -1.000000
v 1.000000 1.000000 1.000000
v 1.000000 -1.000000 1.000000
v -1.000000 1.000000 -1.000000
v -1.000000 -1.000000 -1.000000
v -1.000000 1.000000 1.000000
v -1.000000 -1.000000 1.000000
v -1.000000 -1.000000 0.142906
v -1.000000 -1.000000 -0.142906
v -0.865123 -0.865123 0.000000
v 1.000000 1.000000 0.142906
v 1.000000 1.000000 -0.142906
v 0.865123 0.865123 0.000000
v -1.000000 1.000000 0.142906
v -1.000000 1.000000 -0.142906
v -0.865123 0.865123 0.000000
v 1.000000 -1.000000 0.142906
v 1.000000 -1.000000 -0.142906
v 0.865123 -0.865123 0.000000
v 1.000000 -0.142906 -1.000000
v 1.000000 0.142906 -1.000000
v 0.865123 0.000000 -0.865123
v -1.000000 -0.142906 1.000000
v -1.000000 0.142906 1.000000
v -0.865123 0.000000 0.865123
v 1.000000 0.142906 1.000000
v 1.000000 -0.142906 1.000000
v 0.865123 0.000000 0.865123
v -1.000000 0.142906 -1.000000
v -1.000000 -0.142906 -1.000000
v -0.865123 0.000000 -0.865123
v 1.000000 -0.142906 0.142906
v 1.000000 -0.142906 -0.142906
v 1.000000 0.142906 -0.142906
v 1.000000 0.142906 0.142906
v 0.865123 -0.123632 0.000000
v 0.865123 0.000000 0.000000
v 0.865123 0.000000 -0.123632
v 0.865123 0.123632 0.000000
v 0.865123 0.000000 0.123632
v -1.000000 -0.142906 -0.142906
v -1.000000 -0.142906 0.142906
v -1.000000 0.142906 0.142906
v -1.000000 0.142906 -0.142906
v -0.865123 -0.123632 0.000000
v -0.865123 0.000000 0.000000
v -0.865123 0.000000 0.123632
v -0.865123 0.123632 0.000000
v -0.865123 0.000000 -0.123632
v 0.142906 -1.000000 -1.000000
v -0.142906 -1.000000 -1.000000
v 0.000000 -0.865123 -0.865123
v 0.142906 1.000000 1.000000
v -0.142906 1.000000 1.000000
v 0.000000 0.865123 0.865123
v -0.142906 -1.000000 1.000000
v 0.142906 -1.000000 1.000000
v 0.000000 -0.865123 0.865123
v 0.142906 1.000000 -1.000000
v -0.142906 1.000000 -1.000000
v 0.000000 0.865123 -0.865123
v -0.142906 -1.000000 0.142906
v -0.142906 -1.000000 -0.142906
v 0.142906 -1.000000 -0.142906
v 0.142906 -1.000000 0.142906
v -0.123632 -0.865123 0.000000
v 0.000000 -0.865123 0.000000
v 0.000000 -0.865123 -0.123632
v 0.123632 -0.865123 0.000000
v 0.000000 -0.865123 0.123632
v 0.142906 1.000000 0.142906
v 0.142906 1.000000 -0.142906
v -0.142906 1.000000 -0.142906
v -0.142906 1.000000 0.142906
v 0.123632 0.865123 0.000000
v 0.000000 0.865123 0.000000
v 0.000000 0.865123 -0.123632
v -0.123632 0.865123 0.000000
v 0.000000 0.865123 0.123632
v 0.142906 0.142906 -1.000000
v 0.142906 -0.142906 -1.000000
v -0.142906 -0.142906 -1.000000
v -0.142906 0.142906 -1.000000
v 0.123632 0.000000 -0.865123
v 0.000000 0.000000 -0.865123
v 0.000000 -0.123632 -0.865123
v -0.123632 0.000000 -0.865123
v 0.000000 0.123632 -0.865123
v -0.142906 0.142906 1.000000
v -0.142906 -0.142906 1.000000
v 0.142906 -0.142906 1.000000
v 0.142906 0.142906 1.000000
v -0.123632 0.000000 0.865123
v 0.000000 0.000000 0.865123
v 0.000000 -0.123632 0.865123
v 0.123632 0.000000 0.865123
v 0.000000 0.123632 0.865123
vn -1.0000 -0.0000 -0.0000
vn -0.0000 -0.0000 1.0000
vn -0.0000 1.0000 -0.0000
vn 1.0000 -0.0000 -0.0000
vn -0.0000 -0.0000 -1.0000
vn -0.0000 -1.0000 -0.0000
vn 0.6478 0.5387 -0.5387
vn 0.6478 0.5387 0.5387
vn 0.6478 -0.5387 0.5387
vn 0.6478 -0.5387 -0.5387
vn -0.6478 0.5387 0.5387
vn -0.6478 0.5387 -0.5387
vn -0.6478 -0.5387 -0.5387
vn -0.6478 -0.5387 0.5387
vn 0.5387 -0.6478 -0.5387
vn 0.5387 -0.6478 0.5387
vn -0.5387 -0.6478 0.5387
vn -0.5387 -0.6478 -0.5387
vn -0.5387 0.6478 -0.5387
vn -0.5387 0.6478 0.5387
vn 0.5387 0.6478 0.5387
vn 0.5387 0.6478 -0.5387
vn -0.5387 -0.5387 -0.6478
vn -0.5387 0.5387 -0.6478
vn 0.5387 0.5387 -0.6478
vn 0.5387 -0.5387 -0.6478
vn 0.5387 -0.5387 0.6478
vn 0.5387 0.5387 0.6478
vn -0.5387 0.5387 0.6478
vn -0.5387 -0.5387 0.6478
vn 0.7272 -0.0000 -0.6864
vn 0.7272 -0.0000 0.6864
vn -0.0000 -0.7272 -0.6864
vn -0.0000 -0.7272 0.6864
vn -0.7272 -0.0000 0.6864
vn -0.7272 -0.0000 -0.6864
vn -0.0000 0.7272 -0.6864
vn -0.0000 0.7272 0.6864
vn -0.7272 -0.6864 -0.0000
vn -0.7272 0.6864 -0.0000
vn 0.7272 -0.6864 -0.0000
vn 0.7272 0.6864 -0.0000
vn -0.0000 -0.6864 -0.7272
vn -0.0000 0.6864 -0.7272
vn -0.0000 -0.6864 0.7272
vn -0.0000 0.6864 0.7272
vn 0.6864 -0.0000 0.7272
vn -0.6864 -0.0000 0.7272
vn -0.6864 -0.0000 -0.7272
vn 0.6864 -0.0000 -0.7272
vn 0.6864 0.7272 -0.0000
vn -0.6864 0.7272 -0.0000
vn -0.6864 -0.7272 -0.0000
vn 0.6864 -0.7272 -0.0000
vt 0.625000 0.000000
vt 0.517863 0.107137
vt 0.517863 0.000000
vt 0.482137 0.892863
vt 0.375000 1.000000
vt 0.375000 0.892863
vt 0.875000 0.642863
vt 0.767863 0.750000
vt 0.767863 0.642863
vt 0.482137 0.642863
vt 0.375000 0.750000
vt 0.375000 0.642863
vt 0.732137 0.500000
vt 0.625000 0.607137
vt 0.625000 0.500000
vt 0.625000 0.892863
vt 0.517863 1.000000
vt 0.517863 0.892863
vt 0.625000 0.642863
vt 0.517863 0.750000
vt 0.517863 0.642863
vt 0.482137 0.392863
vt 0.375000 0.500000
vt 0.375000 0.392863
vt 0.482137 0.500000
vt 0.375000 0.607137
vt 0.625000 0.142863
vt 0.517863 0.250000
vt 0.517863 0.142863
vt 0.232137 0.500000
vt 0.125000 0.607137
vt 0.125000 0.500000
vt 0.267863 0.750000
vt 0.267863 0.642863
vt 0.625000 0.392863
vt 0.517863 0.500000
vt 0.517863 0.392863
vt 0.267863 0.607137
vt 0.267863 0.500000
vt 0.482137 0.000000
vt 0.375000 0.107137
vt 0.375000 0.000000
vt 0.482137 0.750000
vt 0.375000 0.857137
vt 0.625000 0.750000
vt 0.517863 0.857137
vt 0.625000 0.250000
vt 0.517863 0.357137
vt 0.875000 0.500000
vt 0.767863 0.607137
vt 0.767863 0.500000
vt 0.732137 0.642863
vt 0.482137 0.142863
vt 0.375000 0.250000
vt 0.375000 0.142863
vt 0.482137 0.250000
vt 0.375000 0.357137
vt 0.517863 0.607137
vt 0.482137 0.625000
vt 0.500000 0.642863
vt 0.500000 0.607137
vt 0.482137 0.607137
vt 0.517863 0.625000
vt 0.482137 0.125000
vt 0.500000 0.142863
vt 0.500000 0.107137
vt 0.482137 0.107137
vt 0.517863 0.125000
vt 0.232137 0.625000
vt 0.250000 0.642863
vt 0.232137 0.642863
vt 0.250000 0.607137
vt 0.232137 0.607137
vt 0.267863 0.625000
vt 0.732137 0.625000
vt 0.750000 0.642863
vt 0.750000 0.607137
vt 0.732137 0.607137
vt 0.767863 0.625000
vt 0.500000 0.392863
vt 0.517863 0.375000
vt 0.482137 0.375000
vt 0.500000 0.357137
vt 0.482137 0.357137
vt 0.500000 0.892863
vt 0.517863 0.875000
vt 0.482137 0.875000
vt 0.500000 0.857137
vt 0.482137 0.857137
vt 0.375000 0.625000
vt 0.125000 0.625000
vt 0.375000 0.125000
vt 0.625000 0.625000
vt 0.625000 0.125000
vt 0.625000 0.107137
vt 0.500000 0.000000
vt 0.500000 0.500000
vt 0.500000 0.750000
vt 0.500000 0.250000
vt 0.500000 1.000000
vt 0.875000 0.625000
vt 0.875000 0.607137
vt 0.375000 0.875000
vt 0.375000 0.375000
vt 0.750000 0.500000
vt 0.250000 0.500000
vt 0.625000 0.375000
vt 0.625000 0.357137
vt 0.250000 0.750000
vt 0.625000 0.875000
vt 0.625000 0.857137
vt 0.750000 0.750000
vt 0.125000 0.750000
vt 0.125000 0.642863
vt 0.482137 1.000000
vt 0.875000 0.750000
vt 0.625000 1.000000
vt 0.732137 0.750000
vt 0.500000 0.625000
vt 0.500000 0.125000
vt 0.250000 0.625000
vt 0.750000 0.625000
vt 0.500000 0.375000
vt 0.500000 0.875000
vt 0.232137 0.750000
s 0
usemtl Material
f 7/1/1 44/2/1 25/3/1
f 91/4/2 8/5/2 57/6/2
f 15/7/3 55/8/3 75/9/3
f 33/10/4 4/11/4 18/12/4
f 60/13/3 13/14/3 1/15/3
f 55/16/2 25/17/2 90/18/2
f 12/19/4 27/20/4 36/21/4
f 82/22/5 2/23/5 51/24/5
f 21/25/4 19/26/4 2/23/4
f 16/27/1 30/28/1 45/29/1
f 52/30/6 10/31/6 6/32/6
f 18/12/6 58/33/6 66/34/6
f 60/35/5 22/36/5 81/37/5
f 2/23/6 65/38/6 51/39/6
f 24/40/1 9/41/1 8/42/1
f 28/43/2 58/44/2 4/11/2
f 3/45/2 93/46/2 27/20/2
f 5/47/5 84/48/5 30/28/5
f 5/49/3 74/50/3 61/51/3
f 72/52/3 3/45/3 12/19/3
f 42/53/1 6/54/1 10/55/1
f 31/56/5 52/57/5 6/54/5
f 1/15/4 35/58/4 22/36/4
f 37/59/7 41/60/7 33/10/7
f 39/61/8 37/59/8 34/62/8
f 40/63/9 39/61/9 35/58/9
f 41/60/10 40/63/10 36/21/10
f 46/64/11 50/65/11 42/53/11
f 48/66/12 46/64/12 43/67/12
f 49/68/13 48/66/13 44/2/13
f 50/65/14 49/68/14 45/29/14
f 67/69/15 71/70/15 63/71/15
f 69/72/16 67/69/16 64/73/16
f 70/74/17 69/72/17 65/38/17
f 71/70/18 70/74/18 66/34/18
f 76/75/19 80/76/19 72/52/19
f 78/77/20 76/75/20 73/78/20
f 79/79/21 78/77/21 74/50/21
f 80/76/22 79/79/22 75/9/22
f 85/80/23 89/81/23 81/37/23
f 87/82/24 85/80/24 82/22/24
f 88/83/25 87/82/25 83/84/25
f 89/81/26 88/83/26 84/48/26
f 94/85/27 98/86/27 90/18/27
f 96/87/28 94/85/28 91/4/28
f 97/88/29 96/87/29 92/89/29
f 98/86/30 97/88/30 93/46/30
f 33/10/31 20/90/31 37/59/31
f 20/90/32 34/62/32 37/59/32
f 63/71/33 11/91/33 67/69/33
f 11/91/34 64/73/34 67/69/34
f 42/53/35 11/92/35 46/64/35
f 11/92/36 43/67/36 46/64/36
f 72/52/37 14/93/37 76/75/37
f 14/93/38 73/78/38 76/75/38
f 36/21/31 14/93/31 12/19/31
f 14/93/32 35/58/32 13/14/32
f 45/29/35 17/94/35 16/27/35
f 17/94/36 44/2/36 15/95/36
f 44/2/39 26/96/39 25/3/39
f 26/96/40 43/67/40 24/40/40
f 35/58/41 23/97/41 22/36/41
f 23/97/42 34/62/42 21/25/42
f 81/37/43 23/97/43 85/80/43
f 23/97/44 82/22/44 85/80/44
f 36/21/41 29/98/41 41/60/41
f 29/98/42 33/10/42 41/60/42
f 45/29/39 32/99/39 50/65/39
f 32/99/40 42/53/40 50/65/40
f 90/18/45 26/100/45 94/85/45
f 26/100/46 91/4/46 94/85/46
f 66/34/33 20/90/33 18/12/33
f 20/90/34 65/38/34 19/26/34
f 75/9/37 17/101/37 15/7/37
f 17/101/38 74/50/38 16/102/38
f 84/48/43 32/99/43 30/28/43
f 32/99/44 83/84/44 31/56/44
f 93/46/45 29/98/45 27/20/45
f 29/98/46 92/89/46 28/43/46
f 91/4/47 59/103/47 96/87/47
f 59/103/48 92/89/48 96/87/48
f 82/22/49 53/104/49 87/82/49
f 53/104/50 83/84/50 87/82/50
f 74/50/51 62/105/51 61/51/51
f 62/105/52 73/78/52 60/13/52
f 65/38/53 53/106/53 51/39/53
f 53/106/54 64/73/54 52/30/54
f 81/37/49 62/107/49 60/35/49
f 62/107/50 84/48/50 61/108/50
f 66/34/53 59/109/53 71/70/53
f 59/109/54 63/71/54 71/70/54
f 90/18/47 56/110/47 55/16/47
f 56/110/48 93/46/48 54/111/48
f 75/9/51 56/112/51 80/76/51
f 56/112/52 72/52/52 80/76/52
f 63/71/6 8/113/6 9/114/6
f 7/1/1 15/95/1 44/2/1
f 91/4/2 24/115/2 8/5/2
f 15/7/3 7/116/3 55/8/3
f 33/10/4 28/43/4 4/11/4
f 60/13/3 73/78/3 13/14/3
f 55/16/2 7/117/2 25/17/2
f 12/19/4 3/45/4 27/20/4
f 82/22/5 21/25/5 2/23/5
f 21/25/4 34/62/4 19/26/4
f 16/27/1 5/47/1 30/28/1
f 52/30/6 64/73/6 10/31/6
f 18/12/6 4/11/6 58/33/6
f 60/35/5 1/15/5 22/36/5
f 2/23/6 19/26/6 65/38/6
f 24/40/1 43/67/1 9/41/1
f 28/43/2 92/89/2 58/44/2
f 3/45/2 54/111/2 93/46/2
f 5/47/5 61/108/5 84/48/5
f 5/49/3 16/102/3 74/50/3
f 72/52/3 54/118/3 3/45/3
f 42/53/1 31/56/1 6/54/1
f 31/56/5 83/84/5 52/57/5
f 1/15/4 13/14/4 35/58/4
f 37/59/4 38/119/4 41/60/4
f 39/61/4 38/119/4 37/59/4
f 40/63/4 38/119/4 39/61/4
f 41/60/4 38/119/4 40/63/4
f 46/64/1 47/120/1 50/65/1
f 48/66/1 47/120/1 46/64/1
f 49/68/1 47/120/1 48/66/1
f 50/65/1 47/120/1 49/68/1
f 67/69/6 68/121/6 71/70/6
f 69/72/6 68/121/6 67/69/6
f 70/74/6 68/121/6 69/72/6
f 71/70/6 68/121/6 70/74/6
f 76/75/3 77/122/3 80/76/3
f 78/77/3 77/122/3 76/75/3
f 79/79/3 77/122/3 78/77/3
f 80/76/3 77/122/3 79/79/3
f 85/80/5 86/123/5 89/81/5
f 87/82/5 86/123/5 85/80/5
f 88/83/5 86/123/5 87/82/5
f 89/81/5 86/123/5 88/83/5
f 94/85/2 95/124/2 98/86/2
f 96/87/2 95/124/2 94/85/2
f 97/88/2 95/124/2 96/87/2
f 98/86/2 95/124/2 97/88/2
f 33/10/31 18/12/31 20/90/31
f 20/90/32 19/26/32 34/62/32
f 63/71/33 9/114/33 11/91/33
f 11/91/34 10/31/34 64/73/34
f 42/53/35 10/55/35 11/92/35
f 11/92/36 9/41/36 43/67/36
f 72/52/37 12/19/37 14/93/37
f 14/93/38 13/14/38 73/78/38
f 36/21/31 40/63/31 14/93/31
f 14/93/32 40/63/32 35/58/32
f 45/29/35 49/68/35 17/94/35
f 17/94/36 49/68/36 44/2/36
f 44/2/39 48/66/39 26/96/39
f 26/96/40 48/66/40 43/67/40
f 35/58/41 39/61/41 23/97/41
f 23/97/42 39/61/42 34/62/42
f 81/37/43 22/36/43 23/97/43
f 23/97/44 21/25/44 82/22/44
f 36/21/41 27/20/41 29/98/41
f 29/98/42 28/43/42 33/10/42
f 45/29/39 30/28/39 32/99/39
f 32/99/40 31/56/40 42/53/40
f 90/18/45 25/17/45 26/100/45
f 26/100/46 24/115/46 91/4/46
f 66/34/33 70/74/33 20/90/33
f 20/90/34 70/74/34 65/38/34
f 75/9/37 79/79/37 17/101/37
f 17/101/38 79/79/38 74/50/38
f 84/48/43 88/83/43 32/99/43
f 32/99/44 88/83/44 83/84/44
f 93/46/45 97/88/45 29/98/45
f 29/98/46 97/88/46 92/89/46
f 91/4/47 57/6/47 59/103/47
f 59/103/48 58/44/48 92/89/48
f 82/22/49 51/24/49 53/104/49
f 53/104/50 52/57/50 83/84/50
f 74/50/51 78/77/51 62/105/51
f 62/105/52 78/77/52 73/78/52
f 65/38/53 69/72/53 53/106/53
f 53/106/54 69/72/54 64/73/54
f 81/37/49 89/81/49 62/107/49
f 62/107/50 89/81/50 84/48/50
f 66/34/53 58/33/53 59/109/53
f 59/109/54 57/125/54 63/71/54
f 90/18/47 98/86/47 56/110/47
f 56/110/48 98/86/48 93/46/48
f 75/9/51 55/8/51 56/112/51
f 56/112/52 54/118/52 72/52/52
f 63/71/6 57/125/6 8/113/6
